<svg xmlns="http://www.w3.org/2000/svg" width="134.608" height="47.438" viewBox="0 0 134.608 47.438">
  <g id="b" transform="translate(0.003)">
    <g id="c" transform="translate(-0.003)">
      <g id="Group_43" data-name="Group 43">
        <g id="Group_41" data-name="Group 41">
          <g id="Group_40" data-name="Group 40" transform="translate(0 30.756)">
            <path id="Path_66" data-name="Path 66" d="M8.817,71.123c-.242.163-.163-1.47.177-3.628s-.916-1.716-2.8.972l-4.93,7.065c-1.879,2.693-1.647,2.874.512.4L3,74.541c2.163-2.47,2.972-1.981,1.8,1.084l-.842,2.2c-1.172,3.065-1.633,4.8-1.033,3.842S5.2,77.885,6.641,75.383s2.419-4.423,2.172-4.261Z" transform="translate(0.003 -66.125)" fill="#faaa54"/>
            <path id="Path_67" data-name="Path 67" d="M11.391,73.718c-.009.293,1.335-.637,2.991-2.065s1.944-.126.647,2.888l-3.4,7.912c-1.3,3.014-1.572,2.916-.614-.223l.54-1.772c.958-3.14.116-3.572-1.874-.958L8.243,81.379C6.252,83.988,4.749,85.8,4.9,85.4s1.554-3.088,3.121-5.977l.535-.991c1.563-2.884,2.837-5.009,2.828-4.716Z" transform="translate(-2.613 -68.772)" fill="#faaa54"/>
          </g>
          <path id="Path_68" data-name="Path 68" d="M40.317,55.64l-3.284,6.2a8.473,8.473,0,0,1-.87,5.851A9.461,9.461,0,0,1,35.47,68.8,7.721,7.721,0,0,0,40.317,55.64Z" transform="translate(-18.971 -29.761)" fill="#f26a21"/>
          <path id="Path_69" data-name="Path 69" d="M11.917,44.107,8.261,50.1a8.465,8.465,0,0,0-4.586,3.735A8.856,8.856,0,0,0,3.08,55a7.721,7.721,0,0,1,8.837-10.889Z" transform="translate(-1.223 -23.465)" fill="#f26a21"/>
          <path id="Path_70" data-name="Path 70" d="M18.531,33.27a27.7,27.7,0,0,1-3.991-3.149A39.281,39.281,0,0,1,16.163,20.1,23.734,23.734,0,0,1,23.973,7.661C27.056,4.949,36.4,0,36.4,0s.619,10.47,0,14.521a23.7,23.7,0,0,1-6.256,13.293,39.508,39.508,0,0,1-7.558,6.777,15.378,15.378,0,0,1-4.056-1.321Z" transform="translate(-7.776)" fill="#6e9ed4"/>
          <path id="Path_71" data-name="Path 71" d="M22.1,32.767c.093.056.181.112.27.158a15.378,15.378,0,0,0,4.056,1.321,39.306,39.306,0,0,0,7.558-6.777A23.687,23.687,0,0,0,40.24,14.176c.535-3.507.144-11.8.028-13.986Z" transform="translate(-11.82 -0.102)" fill="#2166b1"/>
          <circle id="Ellipse_4" data-name="Ellipse 4" cx="4.284" cy="4.284" r="4.284" transform="translate(16.801 9.549)" fill="#fff" stroke="#010101" stroke-miterlimit="10" stroke-width="2"/>
        </g>
        <g id="Group_42" data-name="Group 42" transform="translate(32.197 25.154)">
          <path id="Path_72" data-name="Path 72" d="M90.811,57.286c-.065.014-.186.033-.353.065s-.409.074-.707.126V70.012c.3.051.535.093.707.126s.288.051.353.065.116.019.149.028a.689.689,0,0,1,.6.749v1.4h-6.8v-1.4a.692.692,0,0,1,.6-.749c.047-.009.567-.079,1.558-.219V61.221c0-.2,0-.433.019-.679s.028-.5.056-.754l-5.219,9.8a1.409,1.409,0,0,1-.465.521,1.226,1.226,0,0,1-.67.186H80.2a1.188,1.188,0,0,1-.67-.186,1.409,1.409,0,0,1-.465-.521l-5.293-9.833c.033.265.051.521.065.772s.019.484.019.7v8.791c.991.135,1.512.209,1.558.214a.689.689,0,0,1,.6.749v1.4h-6.8v-1.4a.692.692,0,0,1,.6-.749c.033,0,.084-.014.149-.028s.181-.033.353-.065.409-.074.707-.126V57.472c-.3-.051-.535-.093-.707-.126s-.288-.051-.353-.065-.116-.019-.149-.028a.689.689,0,0,1-.6-.749V55.1h4.233a2.959,2.959,0,0,1,.367.014,1.023,1.023,0,0,1,.279.06.675.675,0,0,1,.233.153,1.246,1.246,0,0,1,.2.288l5.158,9.591q.2.384.377.8c.116.274.228.549.34.833.112-.284.228-.567.344-.847s.247-.544.381-.8l5.112-9.568a1.545,1.545,0,0,1,.2-.288.566.566,0,0,1,.228-.153,1.023,1.023,0,0,1,.279-.06c.107-.009.228-.014.372-.014h4.233v1.4a.692.692,0,0,1-.6.749c-.037,0-.084.014-.149.028Z" transform="translate(-69.22 -54.626)" fill="#010101"/>
          <path id="Path_73" data-name="Path 73" d="M133.548,76.531v1.4H128.79v-7.8a2.607,2.607,0,0,0-.521-1.74,1.923,1.923,0,0,0-1.558-.614,3.1,3.1,0,0,0-1.433.344,5.067,5.067,0,0,0-1.265.944v6.493c.3.051.535.093.7.126s.288.051.354.065.116.019.149.028a.689.689,0,0,1,.6.749v1.4H119.25v-1.4a.692.692,0,0,1,.6-.749c.037,0,.084-.014.149-.028s.186-.033.358-.065.409-.074.707-.126V68.043c-.3-.051-.535-.093-.707-.126s-.293-.051-.358-.065-.116-.023-.149-.028a.689.689,0,0,1-.6-.749v-1.4h3.614a.726.726,0,0,1,.753.535l.2.967a6.829,6.829,0,0,1,.781-.693,5.6,5.6,0,0,1,.87-.535,4.34,4.34,0,0,1,.986-.344,5.215,5.215,0,0,1,1.149-.121,4.394,4.394,0,0,1,1.781.34,3.569,3.569,0,0,1,1.3.954,4.291,4.291,0,0,1,.791,1.47,6.3,6.3,0,0,1,.27,1.879v5.433c.3.051.535.093.707.126s.288.051.353.065.116.019.149.028a.689.689,0,0,1,.6.749Z" transform="translate(-95.98 -60.178)" fill="#010101"/>
          <path id="Path_74" data-name="Path 74" d="M153.1,73.138a3.469,3.469,0,0,1-.86-2.493V63.8H151a.561.561,0,0,1-.581-.619V62.008l1.972-.321.623-3.344a.6.6,0,0,1,.223-.372.7.7,0,0,1,.437-.13h1.53V61.7h3.223v2.1h-3.223V70.44a1.317,1.317,0,0,0,.288.9.974.974,0,0,0,.763.321,1.464,1.464,0,0,0,.46-.065,1.9,1.9,0,0,0,.321-.14c.093-.047.172-.093.247-.14a.423.423,0,0,1,.214-.065.345.345,0,0,1,.214.065.935.935,0,0,1,.177.2l.884,1.433a4.51,4.51,0,0,1-1.484.814,5.565,5.565,0,0,1-1.73.274,3.219,3.219,0,0,1-2.447-.9Z" transform="translate(-112.652 -56.091)" fill="#010101"/>
          <path id="Path_75" data-name="Path 75" d="M179.629,65.839l-.381,2.209a.461.461,0,0,1-.153.307.515.515,0,0,1-.321.088,1.972,1.972,0,0,1-.488-.084,3.243,3.243,0,0,0-.823-.084,2.492,2.492,0,0,0-1.577.507,3.906,3.906,0,0,0-1.112,1.488v5.265c1.019.177,1.028.186,1.214.219a.689.689,0,0,1,.6.749v1.4H170.02V76.5a.692.692,0,0,1,.6-.749c.186-.033.2-.037,1.214-.219V68.015c-1.019-.177-1.028-.186-1.214-.219a.689.689,0,0,1-.6-.749v-1.4h3.54a.718.718,0,0,1,.87.74l.177,1.484a5.82,5.82,0,0,1,1.54-1.791,3.25,3.25,0,0,1,1.981-.656,2.572,2.572,0,0,1,1.507.419Z" transform="translate(-123.136 -60.146)" fill="#010101"/>
          <path id="Path_76" data-name="Path 76" d="M201.252,74.068a4.106,4.106,0,0,1-.321,1.633,3.573,3.573,0,0,1-.944,1.288,4.361,4.361,0,0,1-1.535.847,6.707,6.707,0,0,1-2.1.307,11.864,11.864,0,0,1-3.879-.656h0v-3.47h1.377a.516.516,0,0,1,.558.447c.019.116.065.442.158,1.409a6.677,6.677,0,0,0,1.935.209,2.874,2.874,0,0,0,.9-.126,1.975,1.975,0,0,0,.623-.33,1.213,1.213,0,0,0,.358-.474,1.435,1.435,0,0,0,.112-.553.975.975,0,0,0-.256-.7,2.322,2.322,0,0,0-.679-.479,6.6,6.6,0,0,0-.967-.363c-.363-.107-.735-.223-1.112-.353s-.749-.279-1.112-.447a3.759,3.759,0,0,1-.967-.651,2.9,2.9,0,0,1-.679-.967,3.353,3.353,0,0,1-.256-1.386,3.5,3.5,0,0,1,.3-1.433,3.362,3.362,0,0,1,.879-1.186,4.382,4.382,0,0,1,1.447-.814,5.964,5.964,0,0,1,2-.307,9.853,9.853,0,0,1,3.558.633h0v3.47h-1.377a.516.516,0,0,1-.558-.447c-.019-.112-.06-.428-.153-1.349a5.272,5.272,0,0,0-1.423-.158,2.267,2.267,0,0,0-1.372.372,1.145,1.145,0,0,0-.5.967.923.923,0,0,0,.256.665,2.5,2.5,0,0,0,.679.474,6.736,6.736,0,0,0,.963.363c.358.107.726.223,1.1.354a11.717,11.717,0,0,1,1.1.437,3.721,3.721,0,0,1,.963.623,2.738,2.738,0,0,1,.935,2.167Z" transform="translate(-135.144 -60.194)" fill="#010101"/>
          <path id="Path_77" data-name="Path 77" d="M227.308,70.434v1.4H222.55v-7.8a2.607,2.607,0,0,0-.521-1.74,1.923,1.923,0,0,0-1.558-.614,3.1,3.1,0,0,0-1.433.344,5.068,5.068,0,0,0-1.265.944v6.493c.3.051.535.093.7.126s.288.051.354.065.116.019.149.028a.689.689,0,0,1,.6.749v1.4H213.01v-1.4a.692.692,0,0,1,.6-.749c.037,0,.084-.014.149-.028s.186-.033.353-.065.409-.074.707-.126V56.452c-.3-.051-.535-.093-.707-.126s-.288-.051-.353-.065-.116-.023-.149-.028a.689.689,0,0,1-.6-.749v-1.4h4.758V60.9a6.244,6.244,0,0,1,1.577-1.1,4.561,4.561,0,0,1,2.019-.419,4.394,4.394,0,0,1,1.781.34,3.569,3.569,0,0,1,1.3.954,4.206,4.206,0,0,1,.786,1.47,6.311,6.311,0,0,1,.27,1.884v5.433c.3.051.535.093.707.126s.288.051.354.065.116.019.149.028a.689.689,0,0,1,.6.749Z" transform="translate(-146.13 -54.08)" fill="#010101"/>
          <path id="Path_78" data-name="Path 78" d="M252.158,70.477v1.4H245.59v-1.4a.692.692,0,0,1,.6-.749c.037,0,.084-.014.149-.028s.186-.033.358-.065.409-.074.707-.126V61.989c-.3-.051-.535-.093-.707-.126s-.293-.051-.358-.065-.116-.019-.149-.028a.689.689,0,0,1-.6-.749v-1.4h4.758v9.889c.3.051.535.093.707.126s.288.051.354.065.116.019.149.028a.689.689,0,0,1,.6.749ZM250.637,56.77a2.011,2.011,0,0,1-.409.586,1.93,1.93,0,0,1-.6.4,1.892,1.892,0,0,1-.74.149,1.77,1.77,0,0,1-.721-.149,1.868,1.868,0,0,1-.591-.4,1.9,1.9,0,0,1-.4-.586,1.764,1.764,0,0,1-.149-.716,1.892,1.892,0,0,1,.149-.74,1.837,1.837,0,0,1,.4-.6,1.868,1.868,0,0,1,.591-.4,1.742,1.742,0,0,1,.721-.149,1.909,1.909,0,0,1,.74.149,1.9,1.9,0,0,1,1.014,1,1.816,1.816,0,0,1,.153.74A1.678,1.678,0,0,1,250.637,56.77Z" transform="translate(-163.556 -54.128)" fill="#010101"/>
          <path id="Path_79" data-name="Path 79" d="M274.354,71.675a8.408,8.408,0,0,1-.367,2.544,6.22,6.22,0,0,1-1.056,2.028,4.77,4.77,0,0,1-3.842,1.828,4.424,4.424,0,0,1-1.763-.316,4.271,4.271,0,0,1-1.3-.879v2.651c.3.051.535.093.707.126s.288.051.354.065.116.019.149.028a.689.689,0,0,1,.6.749v1.4H261.27V80.5a.692.692,0,0,1,.6-.749c.037,0,.084-.014.149-.028s.181-.033.354-.065.409-.074.707-.126V68.01c-.3-.051-.535-.093-.707-.126s-.288-.051-.354-.065-.116-.019-.149-.028a.689.689,0,0,1-.6-.749v-1.4h3.614a.87.87,0,0,1,.488.13.629.629,0,0,1,.265.4l.237,1.135a6.1,6.1,0,0,1,1.7-1.372,4.639,4.639,0,0,1,2.251-.526,4.008,4.008,0,0,1,1.833.419,4.094,4.094,0,0,1,1.433,1.214,5.846,5.846,0,0,1,.93,1.958,9.864,9.864,0,0,1,.33,2.67Zm-3.047,0a8.2,8.2,0,0,0-.172-1.823,3.575,3.575,0,0,0-.5-1.214,1.94,1.94,0,0,0-.781-.679,2.433,2.433,0,0,0-1.047-.214,3.024,3.024,0,0,0-1.567.386,4.557,4.557,0,0,0-1.214,1.093v5.493a2.8,2.8,0,0,0,1.093.865,3.31,3.31,0,0,0,1.274.247,2.833,2.833,0,0,0,1.214-.251,2.377,2.377,0,0,0,.921-.763,3.846,3.846,0,0,0,.581-1.3,7.41,7.41,0,0,0,.2-1.847Z" transform="translate(-171.943 -60.14)" fill="#010101"/>
        </g>
      </g>
    </g>
  </g>
</svg>
